<svg width="60" height="62" viewBox="0 0 60 62" fill="none" xmlns="http://www.w3.org/2000/svg">
<path d="M55.0977 25.088C57.0175 23.3344 61.6098 14.6077 53.0683 6.79195C50.1953 4.15936 43.6969 1.34003 36.3593 1.34003C25.2276 1.34003 11.0359 6.99235 5.51797 19.6497C-2.43066 37.8683 12.5773 55.9959 30.9827 55.9959C39.4604 55.9959 48.7451 50.7762 52.5211 45.4837C52.7582 45.1512 53.0182 44.837 53.2644 44.5136C54.1947 43.3066 56.0052 39.9498 49.9171 37.3901C47.2129 36.2514 46.88 33.628 47.2129 32.3208C48.2116 28.3719 51.6136 28.2717 55.0977 25.088ZM41.476 44.8461C38.5255 45.8481 35.4701 44.7368 34.6492 42.3592C33.8284 39.9863 35.5522 37.2489 38.5027 36.2469C41.4532 35.2449 44.5086 36.3562 45.3295 38.7337C46.1503 41.1067 44.4265 43.844 41.476 44.8461Z" fill="url(#paint0_radial_391_380)"/>
<path opacity="0.2" d="M15.5736 44.8042C18.6983 42.2429 20.7107 39.533 20.0684 38.7513C19.4261 37.9696 16.3723 39.4123 13.2475 41.9735C10.1228 44.5348 8.11042 47.2448 8.75273 48.0265C9.39504 48.8082 12.4488 47.3655 15.5736 44.8042Z" fill="#FFA726"/>
<path opacity="0.2" d="M6.80405 45.8663C6.80405 45.8663 17.7716 34.8759 21.429 36.7069C25.0863 38.5379 12.2901 49.5282 12.2901 49.5282H10.4614L12.2901 51.3592C12.2901 51.3592 28.7391 38.5379 26.915 33.0404C25.0909 27.5429 6.59428 43.384 5.36755 44.0991L6.80405 45.8663Z" fill="#FFA726"/>
<path opacity="0.2" d="M2.20264 39.3805C2.20264 39.3805 17.5025 27.1741 32.5697 25.7257C32.5697 25.7257 37.3626 24.6599 36.3001 28.3173C35.233 31.9792 29.756 44.9463 16.1298 53.8689L14.5337 52.7257C14.5337 52.7257 37.8232 36.4792 30.2896 29.0779C30.2896 29.0779 29.4505 27.707 24.5071 29.6882C19.5637 31.6695 2.88668 42.8876 2.88668 42.8876L2.20264 39.3805Z" fill="#FFA726"/>
<path opacity="0.2" d="M0 35.2813C0 35.2813 11.0223 27.5111 23.5403 23.3937C36.0584 19.2763 41.1021 11.2236 41.1021 11.2236C41.1021 11.2236 41.1933 18.5247 21.5794 26.2039C1.96549 33.883 1.68275 37.7181 1.68275 37.7181L0 35.2813Z" fill="#FFA726"/>
<path opacity="0.2" d="M31.4068 1.10322C31.4068 1.10322 13.6581 22.0728 4.40981 17.2039L2.72705 20.4787C2.72705 20.4787 18.3279 22.4463 33.7372 0.911926L31.4068 1.10322Z" fill="#FFA726"/>
<path opacity="0.2" d="M1.71005 25.3886C1.71005 25.3886 15.0672 23.5166 23.0067 18.1785C30.9462 12.8405 34.9593 3.29849 47.3861 3.76306L49.908 4.79241C49.908 4.79241 41.7815 3.01155 35.055 10.9731C28.3286 18.9346 26.6504 19.5859 20.6718 21.7403C14.6933 23.8946 0.401245 27.0738 0.401245 27.0738L1.71005 25.3886Z" fill="#FFA726"/>
<path opacity="0.2" d="M55.6586 8.74591C55.6586 8.74591 46.0866 14.1933 43.1315 17.8689C43.1315 17.8689 54.7147 12.0663 58.144 12.7768L55.6586 8.74591Z" fill="#FFA726"/>
<path opacity="0.2" d="M58.1668 15.546C58.1668 15.546 40.263 22.0272 35.9444 33.7099C31.6258 45.3926 25.8616 48.9361 24.5482 49.592C23.2394 50.2479 16.0341 56.5469 15.9019 57.0753L21.2739 58.1274C21.2739 58.1274 33.3222 47.8885 34.6311 40.8015C35.9399 33.7145 42.835 23.8263 60.0001 16.3339L58.1668 15.546Z" fill="#FFA726"/>
<path opacity="0.2" d="M38.9816 43.2109C38.9816 43.2109 34.1339 54.7615 25.2277 61.9807C25.2277 61.9807 35.4428 57.2529 41.8637 44.2585L38.9816 43.2109Z" fill="#FFA726"/>
<path opacity="0.2" d="M50.2865 37.4903C50.2865 37.4903 46.4741 52.9852 39.5835 56.8157C39.5835 56.8157 49.1145 55.9822 53.5107 36.9893L50.2865 37.4903Z" fill="#FFA726"/>
<path opacity="0.2" d="M36.3593 2.70642C43.0676 2.70642 49.379 5.27069 52.1471 7.80308C55.1661 10.5678 56.6983 13.6786 56.6938 17.0536C56.6892 20.5971 54.9654 23.3663 54.1765 24.0814C53.009 25.1472 51.8553 25.835 50.7334 26.4999C48.6403 27.7479 46.6611 28.9276 45.8904 31.9883C45.4161 33.8739 45.9542 37.2034 49.3927 38.6517C51.381 39.4898 52.5713 40.4599 52.8357 41.4665C53.0729 42.3592 52.5302 43.2383 52.1882 43.6801C52.1107 43.7803 52.0331 43.8759 51.9556 43.9761C51.7778 44.2039 51.5908 44.4362 51.4129 44.6912C47.9973 49.469 39.2187 54.6295 30.9827 54.6295C22.0445 54.6295 13.4711 50.0293 8.61442 42.6234C4.17723 35.8552 3.50687 27.6841 6.77205 20.1963C9.1799 14.6761 13.5715 10.0986 19.4771 6.95591C24.6257 4.21401 30.6225 2.70642 36.3593 2.70642ZM39.2871 46.5814C40.1718 46.5814 41.0565 46.4311 41.9184 46.1396C43.8839 45.4746 45.48 44.1219 46.3099 42.4367C46.9712 41.0885 47.0806 39.6128 46.6246 38.2874C45.8311 35.9964 43.5054 34.5116 40.6962 34.5116C39.8115 34.5116 38.9268 34.6619 38.0649 34.9534C36.0994 35.6183 34.5033 36.9711 33.6733 38.6563C33.0121 40.0045 32.9026 41.4802 33.3587 42.8056C34.1522 45.1011 36.4779 46.5814 39.2871 46.5814ZM36.3593 1.34003C25.2276 1.34003 11.0359 6.99235 5.51797 19.6497C-2.43066 37.8683 12.5773 55.9959 30.9827 55.9959C39.4604 55.9959 48.7451 50.7762 52.5211 45.4837C52.7582 45.1512 53.0182 44.837 53.2644 44.5136C54.1947 43.3066 56.0052 39.9498 49.9171 37.3901C47.2129 36.2514 46.88 33.628 47.2129 32.3208C48.207 28.3719 51.609 28.2671 55.0931 25.088C57.013 23.3344 61.6052 14.6077 53.0638 6.79195C50.1953 4.15936 43.6969 1.34003 36.3593 1.34003ZM39.2871 45.215C37.1437 45.215 35.2694 44.1447 34.6492 42.3638C33.8284 39.9908 35.5522 37.2535 38.5027 36.2514C39.2369 36.0009 39.9802 35.8825 40.6916 35.8825C42.835 35.8825 44.7093 36.9529 45.3295 38.7383C46.1503 41.1113 44.4265 43.8486 41.476 44.8506C40.7418 45.0966 39.9985 45.215 39.2871 45.215Z" fill="#424242"/>
<path d="M31.43 14.8195C34.5123 13.8588 36.3857 11.0789 35.6144 8.61045C34.8431 6.14195 31.7192 4.91962 28.6369 5.88029C25.5547 6.84097 23.6813 9.62086 24.4526 12.0894C25.2239 14.5579 28.3478 15.7802 31.43 14.8195Z" fill="#C62828"/>
<path d="M34.7404 8.05365C35.4746 10.454 33.614 13.1594 30.5769 14.0931C27.5397 15.0268 24.4797 13.8381 23.7455 11.4378C23.0113 9.03746 24.8719 6.33199 27.9091 5.39829C30.9463 4.46458 34.0017 5.65335 34.7404 8.05365Z" fill="url(#paint1_radial_391_380)"/>
<path d="M18.8212 24.678C21.9323 23.7084 23.8254 20.9095 23.0496 18.4266C22.2738 15.9437 19.1229 14.717 16.0118 15.6866C12.9007 16.6563 11.0076 19.4552 11.7834 21.9381C12.5592 24.421 15.7101 25.6477 18.8212 24.678Z" fill="#1565C0"/>
<path d="M22.2908 17.8051C23.0478 20.2692 21.1325 23.0384 18.0224 23.9994C14.9122 24.9605 11.7747 23.7398 11.0177 21.2758C10.2607 18.8117 12.176 16.0425 15.2862 15.0814C18.3963 14.1204 21.5338 15.341 22.2908 17.8051Z" fill="url(#paint2_radial_391_380)"/>
<path d="M15.4797 38.4466C18.6773 37.45 20.6206 34.565 19.82 32.0028C19.0195 29.4407 15.7783 28.1716 12.5806 29.1683C9.38298 30.1649 7.43975 33.0499 8.24031 35.612C9.04087 38.1742 12.2821 39.4433 15.4797 38.4466Z" fill="#F9A825"/>
<path d="M19.0803 31.6648C19.8145 34.0652 17.9539 36.7706 14.9167 37.7043C11.8795 38.638 8.81958 37.4493 8.08537 35.049C7.35116 32.6487 9.21177 29.9432 12.2489 29.0095C15.2861 28.0712 18.3461 29.26 19.0803 31.6648Z" fill="url(#paint3_radial_391_380)"/>
<path d="M24.943 50.9815C27.9913 50.03 29.8326 47.2461 29.0558 44.7635C28.279 42.2808 25.1781 41.0396 22.1298 41.991C19.0816 42.9425 17.2402 45.7264 18.0171 48.209C18.7939 50.6917 21.8948 51.933 24.943 50.9815Z" fill="#558B2F"/>
<path d="M28.2785 44.3405C29.0127 46.7408 27.1521 49.4463 24.115 50.38C21.0778 51.3137 18.0178 50.1249 17.2836 47.7246C16.5494 45.3243 18.41 42.6189 21.4472 41.6852C24.4843 40.7514 27.5443 41.9402 28.2785 44.3405Z" fill="url(#paint4_radial_391_380)"/>
<defs>
<radialGradient id="paint0_radial_391_380" cx="0" cy="0" r="1" gradientUnits="userSpaceOnUse" gradientTransform="translate(29.175 8.97772) rotate(90) scale(48.4797 31.8616)">
<stop stop-color="#FFCC80"/>
<stop offset="0.2942" stop-color="#FFCB7D"/>
<stop offset="0.4879" stop-color="#FFC774"/>
<stop offset="0.6526" stop-color="#FFC166"/>
<stop offset="0.8012" stop-color="#FFB850"/>
<stop offset="0.9375" stop-color="#FFAD35"/>
<stop offset="1" stop-color="#FFA726"/>
</radialGradient>
<radialGradient id="paint1_radial_391_380" cx="0" cy="0" r="1" gradientUnits="userSpaceOnUse" gradientTransform="translate(28.496 5.81914) rotate(90) scale(7.788 6.08063)">
<stop stop-color="#EF5350"/>
<stop offset="0.3459" stop-color="#E94B49"/>
<stop offset="0.8869" stop-color="#D73534"/>
<stop offset="1" stop-color="#D32F2F"/>
</radialGradient>
<radialGradient id="paint2_radial_391_380" cx="0" cy="0" r="1" gradientUnits="userSpaceOnUse" gradientTransform="translate(15.8888 15.5122) rotate(90) scale(9.28557 7.24988)">
<stop stop-color="#42A5F5"/>
<stop offset="0.2859" stop-color="#3B9DEF"/>
<stop offset="0.7328" stop-color="#2787DE"/>
<stop offset="1" stop-color="#1976D2"/>
</radialGradient>
<radialGradient id="paint3_radial_391_380" cx="0" cy="0" r="1" gradientUnits="userSpaceOnUse" gradientTransform="translate(12.8385 29.4267) rotate(90) scale(9.5675 7.47001)">
<stop stop-color="#FFEB3B"/>
<stop offset="0.436" stop-color="#FFEB3B"/>
<stop offset="0.6129" stop-color="#FEE238"/>
<stop offset="0.8995" stop-color="#FCCA30"/>
<stop offset="1" stop-color="#FBC02D"/>
</radialGradient>
<radialGradient id="paint4_radial_391_380" cx="0" cy="0" r="1" gradientUnits="userSpaceOnUse" gradientTransform="translate(22.0349 42.1042) rotate(90) scale(7.788 6.08063)">
<stop stop-color="#8BC34A"/>
<stop offset="0.3459" stop-color="#83BB46"/>
<stop offset="0.8869" stop-color="#6DA53B"/>
<stop offset="1" stop-color="#689F38"/>
</radialGradient>
</defs>
</svg>
