<svg width="75" height="75" viewBox="0 0 75 75" fill="none" xmlns="http://www.w3.org/2000/svg">
<path d="M74.0457 70.4791C67.3555 57.6851 72.4398 49.2878 59.4996 40.6552C46.888 32.2393 33.489 17.5255 32.0443 16.2374L24.2008 24.1455L16.283 31.9792C17.5726 33.4221 32.3047 46.8045 40.7248 59.4004C49.3682 72.3246 57.7759 67.2528 70.5859 73.9285C73.2334 75.3094 74.2565 74.139 74.2565 74.139C74.2565 74.139 75.4284 73.1234 74.0457 70.4791Z" fill="url(#paint0_linear_36_45)"/>
<path d="M48.3884 49.3187L73.2085 74.1081C73.5123 74.4115 73.9959 74.4115 74.2997 74.1081C74.6036 73.8046 74.6036 73.3216 74.2997 73.0182L49.4672 48.2226C50.7259 46.4268 50.5523 43.9373 48.9402 42.3272C47.1359 40.5251 44.2031 40.5251 42.405 42.3272C40.5945 44.1355 40.5945 47.0584 42.405 48.8543C44.0357 50.4892 46.5779 50.6378 48.3884 49.3187Z" fill="#757575"/>
<path opacity="0.2" d="M45.6727 42.835C46.4106 42.835 47.105 43.1198 47.6259 43.64C48.5745 44.5875 48.7047 46.0614 47.9421 47.1575L47.6755 47.5414L47.291 47.8201C46.8198 48.1669 46.2556 48.3465 45.6665 48.3465C44.9349 48.3465 44.2467 48.0616 43.7196 47.5352C43.1988 47.015 42.9136 46.3277 42.9074 45.5907C42.9074 44.8538 43.1926 44.1602 43.7196 43.6338C44.2405 43.1198 44.9349 42.835 45.6727 42.835ZM45.6727 40.9772C44.4885 40.9772 43.3104 41.4292 42.4113 42.3272C40.6008 44.1354 40.6008 47.0584 42.4113 48.8543C43.3104 49.7584 44.4885 50.2043 45.6665 50.2043C46.6214 50.2043 47.5825 49.907 48.3885 49.3187L73.2086 74.108C73.3574 74.2567 73.5558 74.331 73.7543 74.331C73.9527 74.331 74.1511 74.2567 74.2999 74.108C74.6037 73.8046 74.6037 73.3216 74.2999 73.0181L49.4674 48.2226C50.7261 46.4267 50.5524 43.9373 48.9403 42.3272C48.0351 41.4292 46.8508 40.9772 45.6727 40.9772Z" fill="#424242"/>
<path opacity="0.2" d="M32.0505 18.8755C32.1745 19.0056 32.3109 19.1418 32.4473 19.278C36.6636 23.6067 47.8615 35.1127 58.4703 42.1972C65.8984 47.1513 66.816 51.7029 68.0871 58.0009C68.8684 61.8837 69.7612 66.2805 72.4026 71.3399C72.7746 72.0583 72.8552 72.5104 72.8614 72.7519C72.6382 72.7457 72.1794 72.6714 71.4539 72.2874C66.3882 69.6493 61.9859 68.7576 58.0983 67.9773C51.7925 66.7078 47.2352 65.7913 42.2749 58.3725C35.1879 47.7706 23.6676 36.5866 19.3273 32.3756C19.1909 32.2393 19.0545 32.1093 18.9243 31.9792L25.5277 25.4521L32.0505 18.8755ZM32.0443 16.2374L24.2008 24.1455L16.283 31.9792C17.5726 33.4221 32.3047 46.8045 40.7248 59.4004C49.3682 72.3246 57.7759 67.2528 70.5859 73.9285C71.5655 74.4425 72.3282 74.6035 72.8924 74.6035C73.8535 74.6035 74.2565 74.139 74.2565 74.139C74.2565 74.139 75.4284 73.1172 74.0457 70.473C67.3555 57.6789 72.4398 49.2816 59.4996 40.649C46.888 32.2393 33.489 17.5255 32.0443 16.2374Z" fill="#424242"/>
<path d="M23.4443 42.9217L43.0437 23.3466C44.2466 24.548 44.2466 26.4987 43.0437 27.7001L27.797 42.9217C26.5941 44.1231 24.6472 44.1231 23.4443 42.9217Z" fill="url(#paint1_linear_36_45)"/>
<path d="M37.7858 19.6371C36.2234 18.5224 34.8531 17.1538 33.737 15.5933L31.015 11.791C30.3268 10.8249 29.5517 9.91459 28.7147 9.07857L21.3238 1.69689C19.4513 -0.173297 16.4131 -0.173297 14.5406 1.69689L1.72445 14.4972C-0.14806 16.3674 -0.14806 19.4018 1.72445 21.272L9.1091 28.6536C9.95235 29.4959 10.8576 30.2637 11.8249 30.9511L15.6319 33.6697C17.1944 34.7844 18.5647 36.153 19.6807 37.7135L23.4382 42.9711L43.0438 23.3899L37.7858 19.6371Z" fill="url(#paint2_linear_36_45)"/>
<path opacity="0.2" d="M17.9322 2.14913C18.7135 2.14913 19.4513 2.45257 20.0094 3.00991L27.4002 10.3854C28.1691 11.1533 28.8759 11.9831 29.5021 12.8687L32.2241 16.671C33.4642 18.4049 34.9709 19.9097 36.707 21.1483L40.1792 23.6254L23.68 40.1041L21.1998 36.6362C19.9598 34.9022 18.4531 33.3974 16.717 32.1589L12.9099 29.4403C12.0295 28.8086 11.1924 28.1027 10.4236 27.341L3.03893 19.9593C1.89186 18.8136 1.89186 16.9558 3.03893 15.8102L15.8551 3.00991C16.4131 2.45257 17.151 2.14913 17.9322 2.14913ZM17.9322 0.291321C16.7046 0.291321 15.4769 0.755772 14.5406 1.69706L1.72445 14.4973C-0.14806 16.3675 -0.14806 19.4019 1.72445 21.2721L9.1091 28.6538C9.95235 29.496 10.8576 30.2639 11.8249 30.9513L15.6319 33.6699C17.1944 34.7846 18.5647 36.1532 19.6807 37.7137L23.4382 42.9713L43.0438 23.39L37.7858 19.6373C36.2234 18.5226 34.8531 17.154 33.737 15.5934L31.015 11.7911C30.3268 10.8251 29.5517 9.91475 28.7147 9.07874L21.3238 1.69706C20.3876 0.761965 19.1599 0.291321 17.9322 0.291321Z" fill="#EEEEEE"/>
<defs>
<linearGradient id="paint0_linear_36_45" x1="45.5029" y1="22.5849" x2="45.5029" y2="73.3711" gradientUnits="userSpaceOnUse">
<stop stop-color="#E0E0E0"/>
<stop offset="0.9954" stop-color="#9E9E9E"/>
</linearGradient>
<linearGradient id="paint1_linear_36_45" x1="35.6911" y1="35.581" x2="32.9084" y2="32.7948" gradientUnits="userSpaceOnUse">
<stop stop-color="#FFC107"/>
<stop offset="1" stop-color="#FFA000"/>
</linearGradient>
<linearGradient id="paint2_linear_36_45" x1="21.6804" y1="-1.77305" x2="21.6804" y2="51.091" gradientUnits="userSpaceOnUse">
<stop stop-color="#616161"/>
<stop offset="1" stop-color="#212121"/>
</linearGradient>
</defs>
</svg>
